<?xml version="1.0" encoding="UTF-8" standalone="no"?>
<svg width="200" height="200" viewBox="0 0 200 200" xmlns="http://www.w3.org/2000/svg">
  <!-- Definitions for filters and gradients -->
  <defs>
    <!-- Glow filter for neon effect -->
    <filter id="neonGlow" x="-30%" y="-30%" width="160%" height="160%">
      <feGaussianBlur stdDeviation="2" result="blur"/>
      <feFlood flood-color="#bf00ff" flood-opacity="0.8" result="glow"/>
      <feComposite in="glow" in2="blur" operator="in" result="coloredBlur"/>
      <feBlend in="SourceGraphic" in2="coloredBlur" mode="screen"/>
    </filter>
    
    <!-- Gradient for folder -->
    <linearGradient id="folderGradient" x1="0%" y1="0%" x2="100%" y2="100%">
      <stop offset="0%" stop-color="#9966ff"/>
      <stop offset="100%" stop-color="#7339ee"/>
    </linearGradient>
    
    <!-- Sparkle filter -->
    <filter id="sparkle" x="-50%" y="-50%" width="200%" height="200%">
      <feGaussianBlur in="SourceGraphic" stdDeviation="1" result="blur"/>
      <feSpecularLighting in="blur" specularExponent="20" lighting-color="#ffffff" result="specOut">
        <fePointLight x="100" y="100" z="150"/>
      </feSpecularLighting>
      <feComposite in="specOut" in2="SourceGraphic" operator="in" result="specOut"/>
      <feComposite in="SourceGraphic" in2="specOut" operator="arithmetic" k1="0" k2="1" k3="1" k4="0"/>
    </filter>
    
    <!-- Text shadow -->
    <filter id="textShadow" x="-20%" y="-20%" width="140%" height="140%">
      <feDropShadow dx="1" dy="1" stdDeviation="1" flood-color="#000000" flood-opacity="0.5"/>
    </filter>
  </defs>
  
  <!-- Folder -->
  <path d="M25,50 L80,50 L95,35 L175,35 C180,35 185,40 185,45 L185,155 C185,160 180,165 175,165 L25,165 C20,165 15,160 15,155 L15,60 C15,55 20,50 25,50 Z" fill="url(#folderGradient)" stroke="#7339ee" stroke-width="2" filter="url(#sparkle)"/>
  
  <!-- Folder Front -->
  <path d="M15,70 L54,70 L64,60 L185,60 L185,155 C185,160 180,165 175,165 L25,165 C20,165 15,160 15,155 Z" fill="#9966ff" stroke="#7339ee" stroke-width="2"/>
  
  <!-- Upload Arrow - Centered on folder -->
  <g transform="translate(100, 100) scale(0.4)">
    <!-- Clean modern upload arrow -->
    <circle cx="0" cy="0" r="60" fill="#ffffff" stroke="#6029cc" stroke-width="5"/>
    <line x1="0" y1="30" x2="0" y2="-30" 
          stroke="#6029cc" 
          stroke-width="10" 
          stroke-linecap="round"/>
    <polyline points="-25,-5 0,-30 25,-5" 
              stroke="#6029cc" 
              stroke-width="10" 
              stroke-linecap="round" 
              stroke-linejoin="round" 
              fill="none"/>
  </g>
  
  <!-- Text: AdminFiles -->
  <text x="100" y="140" 
        text-anchor="middle" 
        font-family="Arial, sans-serif" 
        font-weight="bold" 
        font-size="18" 
        fill="#ffffff" 
        filter="url(#textShadow)">AdminFiles</text>
  
  <!-- Adding Neon Stars -->
  <!-- Large Star -->
  <path d="M160,30 L163,38 L171,39 L165,45 L167,53 L160,49 L153,53 L155,45 L149,39 L157,38 Z" fill="#d580ff" filter="url(#neonGlow)"/>
  
  <!-- Medium Star -->
  <path d="M140,50 L142,55 L148,56 L144,60 L145,65 L140,63 L135,65 L136,60 L132,56 L138,55 Z" fill="#d580ff" filter="url(#neonGlow)"/>
  
  <!-- Small Star -->
  <path d="M170,60 L171,63 L175,64 L172,66 L173,69 L170,68 L167,69 L168,66 L165,64 L169,63 Z" fill="#d580ff" filter="url(#neonGlow)"/>
  
  <!-- Tiny Star -->
  <path d="M40,40 L41,42 L43,42 L42,44 L43,46 L40,45 L38,46 L39,44 L37,42 L39,42 Z" fill="#d580ff" filter="url(#neonGlow)"/>
  
  <!-- Another Small Star -->
  <path d="M45,160 L46,163 L49,163 L47,165 L48,168 L45,166 L42,168 L43,165 L41,163 L44,163 Z" fill="#d580ff" filter="url(#neonGlow)"/>
  
  <!-- Extra Small Sparkles -->
  <circle cx="155" cy="70" r="1.5" fill="white" filter="url(#neonGlow)"/>
  <circle cx="130" cy="35" r="1" fill="white" filter="url(#neonGlow)"/>
  <circle cx="30" cy="70" r="1" fill="white" filter="url(#neonGlow)"/>
  <circle cx="165" cy="145" r="1.5" fill="white" filter="url(#neonGlow)"/>
  <circle cx="25" cy="130" r="1" fill="white" filter="url(#neonGlow)"/>
</svg>
